<svg width="200" height="200" viewBox="0 0 200 200" xmlns="http://www.w3.org/2000/svg" fill="none">
  <rect width="200" height="200" rx="30" fill="#1E293B"/>
  <g
    stroke="white"
    stroke-width="13"
    stroke-linecap="round"
    stroke-linejoin="round"
  >
    <path d="M30 55L100 30L170 55"/>
    <path d="M30 55H170"/>
    <path d="M45 55V160"/>
    <path d="M155 55V160"/>
  </g>
  <g
    stroke="white"
    stroke-width="20"
    stroke-linecap="round"
    stroke-linejoin="round"
    transform="scale(0.2) translate(300, 360)"
  >
    <!-- 天秤 -->
    <path d="M 200 320 L 200 50" stroke-linecap="butt"/>
    <path d="M 110 320 L 290 320 L 300 340 L 100 340 Z" />
    <path d="M 80 80 L 100 95 C 150 60, 250 60, 300 95 L 320 80" stroke-linecap="round" fill="none"/>

    <!-- 左の皿 -->
    <path d="M 100 95 L 50 225" stroke-linecap="round"/>
    <path d="M 100 95 L 150 225" stroke-linecap="round"/>
    <path d="M 50 225 L 150 225 C 130 255, 70 255, 50 225 Z" fill="white" />

    <!-- 右の皿 -->
    <path d="M 300 95 L 250 225" stroke-linecap="round"/>
    <path d="M 300 95 L 350 225" stroke-linecap="round"/>
    <path d="M 250 225 L 350 225 C 330 255, 270 255, 250 225 Z" fill="white" />
  </g>
</svg>
